<svg width="214" height="80" fill="none" xmlns="http://www.w3.org/2000/svg"><g clip-path="url(#clip0_402_89)" fill="#fff"><path d="M67.144 49.064V33.68a2.86 2.86 0 012.862-2.86h.209v18.244h-3.07zm7.523 0V30.819h3.232l7.396 13.241V30.82h.076a2.86 2.86 0 012.86 2.86v15.384H85l-7.396-13.242v13.242h-2.937zm23.249.443c-1.905 0-3.391-.583-4.46-1.746-1.068-1.166-1.603-2.71-1.603-4.64h3.07c0 1.13.249 2.033.748 2.71.516.661 1.263.99 2.242.99.979 0 1.726-.329 2.242-.99.536-.677.801-1.573.801-2.685V33.68a2.86 2.86 0 012.861-2.86h.209v12.328c0 1.93-.544 3.475-1.628 4.641-1.069 1.146-2.563 1.72-4.488 1.72l.006-.002zm10.283-18.687h10.79a2.685 2.685 0 01-2.686 2.685h-5.033v5.16h7.716v2.685h-7.716v5.031h7.716v2.686h-10.79V30.819h.003zm77.952 0h10.79a2.685 2.685 0 01-2.686 2.685h-5.032v5.16h7.716v2.685h-7.716v5.031h7.716v2.686h-10.79V30.819h.002zm-54.609 18.685c-2.663 0-4.772-.887-6.328-2.658-1.553-1.77-2.331-4.074-2.331-6.908 0-2.833.778-5.134 2.331-6.907 1.554-1.771 3.665-2.658 6.328-2.658 2.236 0 4.075.625 5.519 1.877 1.442 1.232 2.292 2.842 2.546 4.822h-.685c-1.348 0-2.424-1.018-3.221-2.103a4.73 4.73 0 00-.802-.842c-.856-.712-1.966-1.069-3.329-1.069-1.824 0-3.252.625-4.281 1.877-1.015 1.233-1.523 2.9-1.523 5.003s.508 3.78 1.523 5.032c1.032 1.232 2.457 1.848 4.281 1.848 1.363 0 2.473-.356 3.329-1.068.304-.248.573-.527.802-.842.8-1.085 1.873-2.103 3.221-2.103h.685c-.254 1.98-1.101 3.598-2.546 4.847-1.444 1.233-3.283 1.852-5.519 1.852zm15.995-.441V33.633h-5.422a2.815 2.815 0 012.814-2.814h11.125v2.814h-5.446v15.43h-3.071zm12.419 0V33.68a2.86 2.86 0 012.861-2.86h.209v18.244h-3.07zm13.161 0l-6.196-18.245h1.249c1.244 0 2.346.803 2.724 1.988l3.691 11.538 3.689-11.538a2.86 2.86 0 012.725-1.988h1.25l-6.198 18.245h-2.936.002zM21.52 27.441c.232-.29.478-.572.723-.85.011-.015.036-.017.048-.031.022-.028.058-.045.08-.073l.023-.028c.17-.159.354-.329.563-.48.742-.563 1.511-.992 2.326-1.274 2.605-.915 5.505-.351 7.78 1.796 3.177 2.979 2.893 7.773.358 10.96-3.205 4.752-8.71 11.381-1.088 17.322 1.372 1.068 2.387 1.949 6.704 3.196-2.825.521-5.44.36-8.355-.385-2.06-1.163-5.301-3.654-6.406-7.02-1.668-5.103 2.934-12.73 5.157-15.667 3.053-4.066-1.888-8.467-5.525-3.553-1.902 2.56-5.226 9.808-4.072 15.182.675 3.048 1.576 5.271 5.149 8.322a16.982 16.982 0 01-1.93-1.33c-8.297-7.73-7.332-19.681-1.534-26.087z"/><path d="M49.766 51.842c-.232.29-.477.572-.722.85-.012.014-.037.017-.048.031-.022.028-.059.045-.08.073l-.023.028c-.17.159-.354.329-.563.48a8.434 8.434 0 01-2.326 1.274c-2.605.915-5.505.351-7.781-1.796-3.177-2.979-2.892-7.773-.357-10.96C41.07 37.07 46.576 30.44 38.95 24.5c-1.37-1.068-2.388-1.949-6.705-3.196 2.825-.521 5.441-.36 8.356.385 2.06 1.163 5.301 3.656 6.406 7.02 1.667 5.103-2.934 12.73-5.157 15.667-3.054 4.067 1.888 8.467 5.525 3.553 1.902-2.56 5.226-9.808 4.071-15.182-.675-3.048-1.575-5.271-5.148-8.322.661.39 1.305.834 1.93 1.33 8.297 7.728 7.335 19.681 1.537 26.087z"/></g><defs><clipPath id="clip0_402_89"><path fill="#fff" transform="translate(17 21)" d="M0 0h179.941v38H0z"/></clipPath></defs></svg>